<mxfile host="app.diagrams.net" modified="2024-08-23T06:10:25.282Z" agent="Mozilla/5.0 (Windows NT 10.0; Win64; x64) AppleWebKit/537.36 (KHTML, like Gecko) Chrome/127.0.0.0 Safari/537.36 Edg/127.0.0.0" etag="ODD_pVfvLldM2KnyL0qb" version="24.6.5" type="github">
  <diagram name="第 1 页" id="7PunblkzU8tBVCoINsIM">
    <mxGraphModel dx="1780" dy="1085" grid="1" gridSize="10" guides="1" tooltips="1" connect="1" arrows="1" fold="1" page="1" pageScale="1" pageWidth="827" pageHeight="1169" math="0" shadow="0">
      <root>
        <mxCell id="0" />
        <mxCell id="1" parent="0" />
        <mxCell id="jieoU5ogYgc58fKxTd2N-2" value="" style="rounded=0;whiteSpace=wrap;html=1;fillColor=none;" vertex="1" parent="1">
          <mxGeometry x="79" y="160" width="130" height="140" as="geometry" />
        </mxCell>
        <mxCell id="jieoU5ogYgc58fKxTd2N-3" value="&lt;font face=&quot;宋体&quot; style=&quot;font-size: 24px;&quot;&gt;显示器&lt;/font&gt;" style="text;html=1;align=center;verticalAlign=middle;whiteSpace=wrap;rounded=0;" vertex="1" parent="1">
          <mxGeometry x="99" y="212" width="90" height="30" as="geometry" />
        </mxCell>
        <mxCell id="jieoU5ogYgc58fKxTd2N-4" value="" style="endArrow=none;html=1;rounded=0;" edge="1" parent="1">
          <mxGeometry width="50" height="50" relative="1" as="geometry">
            <mxPoint x="210" y="230" as="sourcePoint" />
            <mxPoint x="330" y="230" as="targetPoint" />
          </mxGeometry>
        </mxCell>
        <mxCell id="jieoU5ogYgc58fKxTd2N-5" value="" style="rounded=0;whiteSpace=wrap;html=1;fillColor=none;" vertex="1" parent="1">
          <mxGeometry x="330" y="160" width="130" height="140" as="geometry" />
        </mxCell>
        <mxCell id="jieoU5ogYgc58fKxTd2N-6" style="edgeStyle=orthogonalEdgeStyle;rounded=0;orthogonalLoop=1;jettySize=auto;html=1;exitX=0.5;exitY=1;exitDx=0;exitDy=0;" edge="1" parent="1" source="jieoU5ogYgc58fKxTd2N-3" target="jieoU5ogYgc58fKxTd2N-3">
          <mxGeometry relative="1" as="geometry" />
        </mxCell>
        <mxCell id="jieoU5ogYgc58fKxTd2N-7" value="&lt;font face=&quot;宋体&quot; style=&quot;font-size: 24px;&quot;&gt;硬盘&lt;/font&gt;" style="text;html=1;align=center;verticalAlign=middle;whiteSpace=wrap;rounded=0;" vertex="1" parent="1">
          <mxGeometry x="350" y="167" width="90" height="30" as="geometry" />
        </mxCell>
        <mxCell id="jieoU5ogYgc58fKxTd2N-8" value="" style="endArrow=none;html=1;rounded=0;" edge="1" parent="1">
          <mxGeometry width="50" height="50" relative="1" as="geometry">
            <mxPoint x="460" y="229.5" as="sourcePoint" />
            <mxPoint x="580" y="229.5" as="targetPoint" />
          </mxGeometry>
        </mxCell>
        <mxCell id="jieoU5ogYgc58fKxTd2N-9" value="" style="rounded=0;whiteSpace=wrap;html=1;fillColor=none;" vertex="1" parent="1">
          <mxGeometry x="580" y="160" width="130" height="140" as="geometry" />
        </mxCell>
        <mxCell id="jieoU5ogYgc58fKxTd2N-10" value="&lt;font face=&quot;宋体&quot; style=&quot;font-size: 24px;&quot;&gt;GPU&lt;/font&gt;" style="text;html=1;align=center;verticalAlign=middle;whiteSpace=wrap;rounded=0;" vertex="1" parent="1">
          <mxGeometry x="600" y="164" width="90" height="30" as="geometry" />
        </mxCell>
        <mxCell id="jieoU5ogYgc58fKxTd2N-11" value="" style="rounded=0;whiteSpace=wrap;html=1;fillColor=none;dashed=1;dashPattern=12 12;" vertex="1" parent="1">
          <mxGeometry x="595" y="265" width="100" height="30" as="geometry" />
        </mxCell>
        <mxCell id="jieoU5ogYgc58fKxTd2N-12" value="&lt;font face=&quot;宋体&quot; style=&quot;font-size: 24px;&quot;&gt;GPU7&lt;/font&gt;" style="text;html=1;align=center;verticalAlign=middle;whiteSpace=wrap;rounded=0;" vertex="1" parent="1">
          <mxGeometry x="600" y="267.5" width="90" height="25" as="geometry" />
        </mxCell>
        <mxCell id="jieoU5ogYgc58fKxTd2N-15" value="&lt;div style=&quot;line-height: 50%;&quot;&gt;&lt;font face=&quot;宋体&quot; style=&quot;font-size: 24px;&quot;&gt;.&lt;/font&gt;&lt;/div&gt;&lt;div style=&quot;line-height: 50%;&quot;&gt;&lt;font face=&quot;宋体&quot; style=&quot;font-size: 24px;&quot;&gt;.&lt;/font&gt;&lt;/div&gt;&lt;div style=&quot;line-height: 50%;&quot;&gt;&lt;font face=&quot;宋体&quot; style=&quot;font-size: 24px;&quot;&gt;.&lt;/font&gt;&lt;/div&gt;&lt;div style=&quot;line-height: 50%;&quot;&gt;&lt;font face=&quot;宋体&quot; style=&quot;font-size: 24px;&quot;&gt;&lt;br&gt;&lt;/font&gt;&lt;/div&gt;&lt;div style=&quot;line-height: 50%;&quot;&gt;&lt;font face=&quot;宋体&quot; style=&quot;font-size: 24px;&quot;&gt;&lt;br&gt;&lt;/font&gt;&lt;/div&gt;" style="text;html=1;align=center;verticalAlign=middle;whiteSpace=wrap;rounded=0;" vertex="1" parent="1">
          <mxGeometry x="630" y="233" width="30" height="40" as="geometry" />
        </mxCell>
        <mxCell id="jieoU5ogYgc58fKxTd2N-18" value="" style="rounded=0;whiteSpace=wrap;html=1;fillColor=none;dashed=1;dashPattern=12 12;" vertex="1" parent="1">
          <mxGeometry x="595" y="200" width="100" height="30" as="geometry" />
        </mxCell>
        <mxCell id="jieoU5ogYgc58fKxTd2N-19" value="&lt;font face=&quot;宋体&quot; style=&quot;font-size: 24px;&quot;&gt;GPU0&lt;/font&gt;" style="text;html=1;align=center;verticalAlign=middle;whiteSpace=wrap;rounded=0;" vertex="1" parent="1">
          <mxGeometry x="600" y="202.5" width="90" height="25" as="geometry" />
        </mxCell>
        <mxCell id="jieoU5ogYgc58fKxTd2N-23" value="" style="rounded=0;whiteSpace=wrap;html=1;fillColor=none;dashed=1;dashPattern=12 12;" vertex="1" parent="1">
          <mxGeometry x="346" y="251.5" width="100" height="30" as="geometry" />
        </mxCell>
        <mxCell id="jieoU5ogYgc58fKxTd2N-24" value="&lt;font face=&quot;宋体&quot; style=&quot;font-size: 24px;&quot;&gt;Disk1&lt;/font&gt;" style="text;html=1;align=center;verticalAlign=middle;whiteSpace=wrap;rounded=0;" vertex="1" parent="1">
          <mxGeometry x="351" y="259" width="90" height="20" as="geometry" />
        </mxCell>
        <mxCell id="jieoU5ogYgc58fKxTd2N-26" value="" style="rounded=0;whiteSpace=wrap;html=1;fillColor=none;dashed=1;dashPattern=12 12;" vertex="1" parent="1">
          <mxGeometry x="345" y="205.5" width="100" height="30" as="geometry" />
        </mxCell>
        <mxCell id="jieoU5ogYgc58fKxTd2N-27" value="&lt;font face=&quot;宋体&quot; style=&quot;font-size: 24px;&quot;&gt;Disk0&lt;/font&gt;" style="text;html=1;align=center;verticalAlign=middle;whiteSpace=wrap;rounded=0;" vertex="1" parent="1">
          <mxGeometry x="350" y="208" width="90" height="25" as="geometry" />
        </mxCell>
      </root>
    </mxGraphModel>
  </diagram>
</mxfile>
